<?xml version="1.0" encoding="UTF-8" standalone="no"?>
<svg
   version="1.0"
   width="626.37946pt"
   height="649.87531pt"
   viewBox="0 0 626.37946 649.87531"
   preserveAspectRatio="xMidYMid"
   id="svg17"
   sodipodi:docname="Screenshot-From-2025-04-24-20-33-05.svg"
   xml:space="preserve"
   inkscape:version="1.4.1 (93de688d07, 2025-03-30)"
   xmlns:inkscape="http://www.inkscape.org/namespaces/inkscape"
   xmlns:sodipodi="http://sodipodi.sourceforge.net/DTD/sodipodi-0.dtd"
   xmlns="http://www.w3.org/2000/svg"
   xmlns:svg="http://www.w3.org/2000/svg"><defs
     id="defs17" /><sodipodi:namedview
     id="namedview17"
     pagecolor="#ffffff"
     bordercolor="#eeeeee"
     borderopacity="1"
     inkscape:showpageshadow="0"
     inkscape:pageopacity="0"
     inkscape:pagecheckerboard="0"
     inkscape:deskcolor="#d1d1d1"
     inkscape:document-units="pt"
     inkscape:zoom="0.61695558"
     inkscape:cx="-128.85855"
     inkscape:cy="444.92669"
     inkscape:window-width="2256"
     inkscape:window-height="1377"
     inkscape:window-x="0"
     inkscape:window-y="0"
     inkscape:window-maximized="1"
     inkscape:current-layer="svg17" /><g
     id="g143"
     inkscape:label="socle"
     transform="matrix(0.1,0,0,-0.1,-164.70232,678.9)"
     style="fill:#000000;stroke:none"><path
       d="m 4833,4260 c -141,-94 -367,-346 -525,-585 -185,-281 -269,-490 -322,-802 -77,-457 -56,-853 68,-1295 68,-240 137,-418 238,-610 58,-111 209,-329 216,-310 2,6 -8,55 -22,109 -120,466 -173,913 -163,1358 10,424 53,692 178,1115 103,345 210,627 335,881 46,94 84,173 84,175 0,13 -35,-1 -87,-36 z"
       id="path11"
       style="fill:#036045;fill-opacity:1" /><path
       d="m 5880,4224 c -434,-208 -960,-719 -1165,-1132 -118,-239 -201,-534 -229,-818 -23,-236 -28,-414 -17,-624 22,-382 54,-611 126,-883 56,-209 64,-226 65,-127 0,41 7,118 15,170 60,396 276,774 580,1014 202,160 323,221 700,355 105,38 208,77 230,89 117,60 255,192 423,402 64,80 148,178 186,218 38,39 63,72 55,72 -8,0 -72,-19 -144,-41 -71,-23 -224,-70 -340,-106 -350,-108 -566,-191 -709,-273 -228,-130 -482,-379 -658,-644 -33,-50 -62,-93 -64,-95 -16,-18 -7,32 37,210 27,112 68,278 90,369 71,288 145,545 229,785 136,392 392,817 617,1024 42,39 70,71 62,71 -8,0 -48,-16 -89,-36 z"
       id="path12"
       style="fill:#036045;fill-opacity:1" /><path
       d="m 3851,3301 c -115,-143 -229,-344 -296,-522 -63,-164 -114,-423 -115,-581 0,-10 -4,-18 -8,-18 -5,0 -51,40 -104,90 -175,164 -256,223 -381,277 -166,73 -217,82 -602,112 -208,17 -385,59 -575,138 -124,51 -139,53 -111,17 85,-108 257,-283 361,-366 201,-162 360,-236 690,-322 273,-71 309,-92 393,-225 49,-76 101,-155 114,-171 7,-8 43,-56 80,-107 165,-223 575,-636 836,-842 30,-24 28,-7 -7,45 -72,107 -176,331 -225,484 -222,699 -222,1572 -2,2009 18,34 30,65 28,67 -3,3 -37,-36 -76,-85 z"
       id="path13"
       style="fill:#686e04;fill-opacity:1" /><path
       d="m 2150,2080 c 0,-28 32,-205 50,-275 50,-192 138,-410 222,-545 105,-169 306,-387 468,-507 352,-261 736,-399 1230,-443 144,-12 353,-13 346,-1 -3,5 -86,76 -184,157 -97,82 -231,195 -297,253 -203,178 -682,663 -845,856 -84,99 -158,186 -165,193 -6,7 -70,26 -141,42 -71,16 -165,41 -209,55 -96,32 -279,118 -382,180 -75,46 -93,53 -93,35 z"
       id="path15"
       style="fill:#036045;fill-opacity:1" /><path
       style="fill:#686e04;fill-opacity:1;stroke-width:5.61604"
       d="m 4779.2507,317.67185 c -18.8848,11.9739 -11.9544,277.3785 11.1772,428.0344 35.4286,230.7473 111.0971,434.35575 227.1037,611.08995 155.6345,237.1067 432.0469,461.916 707.3868,575.3253 162.8162,67.0622 381.8709,126.4475 560.7802,152.0263 73.0487,10.4439 314.0381,15.9148 442.3183,10.0415 l 98.2807,-4.4998 v -13.7327 c 0,-11.4307 -8.4732,-18.5272 -50.5444,-42.3321 -103.5605,-58.5972 -185.0141,-122.6345 -271.8958,-213.759 -121.7657,-127.7121 -158.1927,-193.062 -248.4205,-445.6651 -69.5021,-194.5791 -120.9971,-303.906 -194.988,-413.97105 -118.1931,-175.8177 -295.6726,-323.8141 -531.4567,-443.1707 -158.5883,-80.2792 -292.9919,-122.0308 -505.9256,-157.1627 -115.9533,-19.1311 -207.9916,-37.1168 -226.9678,-44.3531 -4.6332,-1.7669 -12.2149,-0.8089 -16.8481,2.1288 z"
       id="path71" /><path
       style="fill:#036045;fill-opacity:1;stroke-width:5.61604"
       d="m 5476.688,307.5091 c 1.6741,16.8948 4.6345,18.93398 60.7283,41.82938 284.2957,116.03887 575.8576,354.34935 709.9882,580.31452 50.6326,85.2991 94.3102,173.7546 132.6884,268.7196 38.3349,94.8578 44.8982,105.8846 65.5277,110.0912 8.5989,1.7534 88.9237,8.4185 178.4996,14.8112 227.6279,16.2452 331.2846,30.6452 409.971,56.9532 42.1894,14.1057 153.8563,66.8907 188.3974,89.0557 24.6744,15.8335 55.9003,22.3949 55.9003,11.7461 0,-7.1626 -90.6096,-156.6558 -135.6035,-223.7271 -60.0328,-89.4891 -122.9875,-164.6116 -226.5972,-270.39362 -222.0861,-226.7424 -405.5079,-364.76783 -642.383,-483.39518 -211.5447,-105.94185 -429.789,-169.01955 -710.0004,-205.2066 -91.713,-11.84407 -89.2281,-12.1065 -87.1168,9.2016 z"
       id="path72" /></g><g
     id="g97"
     transform="matrix(0.1,0,0,-0.1,93.433523,736.50975)"
     inkscape:label="leafs_group"
     style="fill:#000000;stroke:none"><path
       id="path2-6"
       d="m 1166.7812,6945.8091 c -6.0378,0.2035 -14.5634,-4.5928 -19.9072,-12.9053 -4,-7 -45.9883,-44.002 -92.9883,-82.002 -110.99997,-90 -185.00875,-161 -219.00875,-210 -38,-54 -80.99121,-165.9892 -80.99121,-208.9892 0,-43 -6.00781,-47.0098 -58.00781,-35.0098 -23,5 -102.99707,10.001 -176.99707,11.001 -130,1 -140.00488,0.01 -325.00488,-46.9922 -104.000007,-27 -189.9902394,-52.001 -189.9902394,-56.001 0,-4 14.9882834,-10.0078 32.9882814,-13.0078 18,-3 64.011718,-20.9941 102.011718,-38.9941 121,-58 170.99023,-71.001 279.99024,-71.001 113,0 151.00195,13.0029 217.00195,78.0029 20,20 40.99609,35.9912 45.99609,35.9912 5,0 13.00684,-25.0009 17.00684,-56.0009 4,-31 17,-89.9971 30,-131.9971 9.48807,-33.2082 16.47446,-63.9109 17.00683,-77.7832 l -78.41308,-1.333 h -0.0293 c -61.64504,9.1834 -125.64978,1.6738 -198.75,-21.7676 -2.90588,-0.8308 -6.2405,-2.5622 -9.15527,-3.457 -59.16201,-19.8858 -123.65457,-48.892 -200.6543,-92.6514 -38,-22 -105.00391,-54.001 -149.00391,-71.001 l -78.002925,-31.0107 93.002925,-5.9912 c 24.49655,-1.2671 48.99689,-3.7879 71.83594,-7.251 5.89214,-2.7698 13.88211,-4.7181 24.8584,-6.709 12.65859,-2.296 34.4198,-7.195 57.61231,-12.876 84.67465,-30.3974 193.3172,-43.0437 261.69433,-30.1611 54.76843,10.0409 90.3506,28.5316 158.36426,83.2324 0.17118,0.1341 0.38606,0.2616 0.55664,0.3955 2.41705,1.8979 4.82046,3.7668 7.22168,5.6104 31.89486,24.4878 61.60744,43.667 67.9541,43.667 6.82448,0 21.43159,-21.1834 32.46094,-47.0801 28.66597,-67.3073 81.93512,-230.5014 76.88965,-235.5469 -1.79543,-1.7953 -23.19365,0.067 -51.69434,4.2188 -2.88442,0.7859 -5.81605,1.6218 -8.75976,2.5049 -89.53458,23.935 -234.17678,2.0292 -435.98145,-62.0508 -1.78445,-0.5428 -2.65637,-0.5491 -4.45313,-1.0986 -13.37915,-4.092 -25.47325,-7.8101 -36.41601,-11.2061 -25.62246,-7.9518 -44.91234,-14.1622 -59.41406,-19.4678 -30.79259,-8.7667 -67.88709,-17.0067 -91.72852,-20.1855 -46,-5 -52.00879,-7.9951 -39.00879,-19.9951 9.01585,-9.0159 70.75454,-32.5953 144.84375,-57.5977 25.30905,-9.2131 61.62275,-20.6034 113.73047,-36.7236 39.55025,-12.2354 70.01306,-20.9908 96.62109,-27.2168 23.03821,-5.9677 42.36315,-10.3596 55.81055,-12.4658 69.17442,-10.9527 152.05824,-4.225 224.79492,12.4072 5.77605,1.232 11.10956,2.7467 16.71387,4.1308 40.54456,10.5297 77.90089,23.3308 104.26758,40.0928 0.92434,0.5509 2.00539,1.0242 2.91504,1.582 0.18015,0.1105 0.36166,0.2127 0.54199,0.3223 19.53156,11.8723 40.03398,18.6718 45.76172,15.1318 10.09927,-6.2417 94.2951,-211.9309 112.4854,-274.8046 9.9417,-34.3635 3.7605,-36.9864 -47.9004,-15.6592 -1.4245,0.588 -2.8857,1.1921 -4.3799,1.8164 -0.3273,0.1367 -0.7772,0.2458 -1.1133,0.3808 -36.71515,16.4728 -64.13855,19.5997 -138.09082,19.5997 -58.45266,-0.5173 -110.08805,-6.7626 -165.89356,-19.8194 -0.90623,-0.2188 -2.25914,-0.2748 -3.14941,-0.498 -37.2003,-9.3296 -112.3006,-33.7463 -166.88965,-54.2432 -2.3103,-0.8674 -4.56228,-1.7024 -6.76758,-2.5342 -0.76201,-0.2979 -1.53439,-0.6082 -2.2998,-0.9082 -16.24348,-6.4974 -32.33028,-12.8486 -47.3877,-18.7353 -40.56155,-15.8577 -73.58442,-28.3427 -81.60645,-31.2598 -15,-5 -6.00488,-14.9971 49.99512,-56.9971 2.49264,-1.8694 4.81555,-2.9518 7.29492,-4.7754 7.6731,-6.1376 17.5525,-13.0245 30.74707,-21.6357 7.64333,-4.9883 15.2652,-8.8785 22.89551,-13.4912 75.3595,-46.7817 149.14161,-73.5722 233.15918,-83.335 20.38284,-2.4481 41.13793,-3.959 62.41699,-4.248 7.75391,-0.2128 14.50195,-1.5235 22.48536,-1.5235 65.56046,0 105.92194,6.7819 186.97262,27.6563 0.8312,0.1996 1.5841,0.2962 2.417,0.498 14.2787,3.4594 27.2766,6.6148 39.1553,9.4483 123.8203,29.5357 125.0697,23.4885 166.5527,-51.0205 7.9868,-14.3454 15.1742,-29.1038 22.1485,-43.4473 3.5245,-7.19 6.4632,-13.3373 9.5654,-20.0244 6.6075,-14.7298 12.4673,-28.5837 14.209,-35.6543 l 6.4892,-26.3965 -120.5127,0.9522 c -139,0 -165.98726,-4.002 -291.98726,-52.002 -12.3156,-4.6498 -24.33235,-9.1263 -36.0498,-13.4326 -47.46678,-16.4022 -93.97688,-32.1718 -117.71485,-39.8438 -14.05188,-4.5415 -24.89413,-8.2307 -33.25195,-11.6894 -18.21323,-5.6392 -35.20601,-10.6448 -50.99121,-15.044 l -42.99317,-11.0009 42.99317,-30.9961 c 24,-17 64.0039,-51 89.0039,-75 67.96923,-65.3799 127.56251,-103.9352 193.41797,-123.003 0.41552,-0.1362 0.82967,-0.2757 1.24512,-0.4101 1.02197,-0.3306 2.2307,-0.6544 3.61816,-0.9668 34.42545,-9.4236 70.63795,-13.6231 110.71292,-13.6231 82.3092,0 114.2859,9.6031 203.247,63.3985 5.6328,3.3081 11.0585,6.4846 16.3038,9.5215 108.7575,62.9687 136.8262,68.3095 192.7002,43.5937 12.0169,-5.3157 23.7573,-11.4056 33.2812,-17.0654 3.755,-2.9609 7.5742,-6.1092 11.4697,-9.4483 3.9879,-3.2943 7.9807,-6.4899 11.8799,-9.5361 1.685,-1.8119 3.728,-3.3671 6.0498,-4.6582 16.0486,-12.1446 29.6578,-20.8008 34.0723,-20.8008 14,0 60.0019,50.0078 67.0019,73.0078 3.992,11.976 -6.9602,32.9024 -28.872,59.8243 -0.044,0.054 -0.088,0.1216 -0.1319,0.1757 -0.9024,1.1235 -2.1133,3.1613 -3.0322,4.3213 -8.6995,10.982 -18.9757,27.3914 -28.6816,40.9278 -55.9122,76.7433 -120,191.6155 -120,215.3466 0,6.4298 33.6422,47.7346 76.289,93.9844 l 20.4199,21.416 c 158,166 197.0079,261.9904 178.0079,429.9903 -1.4043,12.3265 -4.9789,26.9276 -7.1045,40.5322 -1.7537,11.3261 -2.8147,21.7765 -5.0391,33.7646 -2.1486,11.5801 -3.901,19.419 -5.7129,27.6416 -10.955,53.471 -23.0248,102.2692 -32.1387,118.0665 -5,10 -11.0097,1.9951 -20.0097,-25.0049 -7,-21 -20.9961,-51.9942 -30.9961,-68.9942 -8.641,-13.8256 -21.768,-35.87 -30.9815,-52.5732 -13.934,-21.0066 -30.9433,-47.5378 -52.1777,-80.9766 -10.3731,-16.3349 -20.1886,-31.9423 -29.4727,-46.875 -2.7852,-4.1938 -5.5775,-8.3882 -8.3642,-12.5683 -70.5404,-104.0901 -108.7537,-180.505 -127.9541,-252.1143 -2.1027,-7.2525 -4.0306,-14.4055 -5.4932,-21.1963 -0.9762,-4.5165 -2.7366,-9.1976 -3.5595,-13.6963 -3.2065,-17.1009 -6.1198,-33.058 -8.1446,-44.5166 -3.9954,-10.3221 -9.0439,-13.783 -16.1133,-12.4072 -16.6153,3.2337 -126.2234,189.5257 -140.6103,238.9893 -0.3461,1.19 -0.6678,2.3344 -0.9668,3.4423 -1.0536,5.0083 -1.5117,9.5588 -1.0693,14.0772 3.2362,15.7594 24.7249,37.8022 103.0957,109.2334 5.6485,4.8231 11.5735,9.8557 17.8125,15.1758 116,97.9999 148.9921,134.0097 181.9921,200.0097 9.5187,19.3092 16.6219,43.1494 22.0459,69.3604 2.7701,12.9574 4.2063,27.4785 5.6543,41.8945 7.2433,62.8825 5.5519,135.5783 -8.6865,209.7363 -0.596,3.5017 -1.2315,7.229 -1.8896,11.1475 -6.588,48.9494 -15.397,104.324 -26.1328,167.6367 -1.2979,7.6537 -2.4668,14.4644 -3.5743,20.5225 -22.3618,162.6742 -19.9862,160.5163 -85.415,25.6933 -14.2298,-29.322 -25.1962,-51.9907 -34.5117,-70.664 -23.6974,-41.652 -63.2606,-103.1766 -97.4561,-150.9522 -5.377,-7.5124 -10.6013,-14.9452 -15.6885,-22.2802 -91.5588,-123.6314 -140.3325,-236.2826 -141.3427,-326.0596 -7.2412,-46.5904 -15.6017,-57.6834 -29.8535,-43.3154 -15.696,15.8238 -145.67325,406.7066 -140.08305,421.2744 2.70068,7.038 40.00506,20.7209 82.91015,30.4101 7.3026,1.6492 14.4382,3.3556 21.3867,5.1123 18.2704,4.6192 35.0369,9.7737 51.0205,15.2491 88.8151,28.3183 143.2272,70.0912 186.6211,146.2353 32,56 38.9991,79 48.9991,165 0.7085,6.4948 1.621,13.7825 2.6953,21.7236 2.4559,13.164 4.8184,26.5488 7.0459,39.961 7.7242,46.5086 15.3425,90.3139 21.2841,122.6953 4.5689,22.4921 9.3038,44.4557 13.9747,64.6143 19,82 32.996,153.9941 30.996,158.9941 -2,6 -17.9912,-19.9932 -35.9912,-57.9932 -24.131,-52.4849 -50.0816,-88.2346 -91.0254,-120.6299 -8.7454,-4.393 -17.5028,-9.339 -25.9716,-14.7802 -23.2042,-14.9086 -56.4936,-35.2673 -84.6094,-51.8701 -10.532,-6.2193 -20.3448,-11.9193 -28.6231,-16.5967 -2.4825,-1.4027 -4.7367,-3.1539 -7.1923,-4.5996 -90.8822,-53.1529 -153.38897,-118.6832 -197.57817,-210.5274 -21,-44 -41.0039,-96.9931 -44.0039,-117.9931 -0.064,-0.5066 -0.12496,-1.0103 -0.19043,-1.5088 -10e-4,0 10e-4,-0.01 0,-0.015 -6.3e-4,0 6.2e-4,-0.01 0,-0.015 -6.47745,-24.606 -15.48414,-44.9579 -20.5957,-46.919 -0.86528,0.036 -1.7488,0.204 -2.65137,0.5127 -5.80948,3.5997 -16.95666,21.2294 -26.44043,42.2608 l -16.4502,36.4453 v 0.015 c -5.0684,14.7444 -10.30339,31.4872 -15.67382,50.2149 -40.00001,137 -38.98926,165.0107 1.01074,181.0107 54,23 145.99414,86.9971 188.99414,131.9971 47.00004,50 101.99904,156.0029 123.99904,243.0029 17,66 66.0058,294.002 66.0058,307.002 0,5.2812 -2.9733,7.7562 -7.1045,7.8955 z"
       style="fill:#686e04;fill-opacity:1" /></g><g
     id="g140"
     inkscape:label="flower_left"
     transform="matrix(0.1,0,0,-0.1,-164.70232,678.9)"
     style="fill:#000000;stroke:none"><path
       d="m 2298.4863,4376.1621 c -37.1294,-30.6692 -99.8639,-30.6056 -41.8213,-76.9586 58.9843,-189.3372 157.2474,-363.3658 243.4233,-541.1174 8.0628,-33.0542 106.6448,-155.6061 41.0903,-139.3865 -37.5309,25.0606 -91.1598,156.4272 -78.3597,38.5673 -57.0456,-92.557 84.2473,-100.457 122.7362,-168.981 125.4877,-178.2534 253.0242,-355.4316 382.2748,-530.738 8.5193,-40.864 -429.9351,193.5798 -551.4521,239.7049 -125.9432,47.8052 64.5806,-92.8584 55.6572,-150.7426 201.3311,-64.8614 554.9795,-222.9395 683.7617,-394.0598 27.3208,-66.3694 179.0882,-107.5088 171.3802,-11.8399 -91.3201,85.8225 -168.7096,190.562 -216.1426,307.39 -44.0577,86.5832 -134.4662,156.8756 -134.3102,268.6287 -26.2121,152.2181 -30.8368,306.9559 -36.6221,460.9787 -138.6914,-0.8608 16.3701,-518.5066 -104.7427,-341.6592 -58.183,105.9174 -132.8147,210.3902 -136.4802,335.9835 -7.9981,32.7867 15.4021,205.4154 -39.2749,122.2101 -30.6697,-132.1093 -91.3252,32.1948 -117.803,80.193 -84.791,165.243 -173.1012,329.9181 -243.3149,501.8268 z"
       id="path118"
       style="fill:#686e04;fill-opacity:1"
       sodipodi:nodetypes="cccccccsccccccccccc" /><path
       id="path120"
       d="m 3117.9235,3598.4303 c -13.7434,-17.4159 -19.8025,-46.6156 -36.2694,-66.1083 -45.4666,-73.512 -92.0375,-128.5051 -104.6579,-217.0395 -3.4569,-23.1105 -36.1765,-164.9001 96.8476,-351.0677 6.0489,-0.6806 171.3099,-4.2185 245.8312,93.6678 36.5984,46.7036 66.1569,100.9289 73.3421,160.6135 10.6334,67.4149 8.0977,137.7549 -15.7754,202.2209 -17.0865,49.5752 -33.8867,100.1219 -61.3292,145.0733 -25.6682,20.3731 -46.5533,-23.8345 -64.1451,-38.6222 -15.0239,-16.5598 -39.8749,-54.8673 -61.3105,-24.5866 -24.8124,23.8565 -33.2589,58.7135 -54.7813,84.7268 -4.8289,4.964 -10.4652,10.5406 -17.7521,11.122 z"
       sodipodi:nodetypes="cccccccccccc"
       style="fill:#b3065d;fill-opacity:1" /><path
       d="m 2888.9941,4321.3673 c -4,0 -10.9892,-15.0068 -13.9892,-32.0068 -20,-89 -44.999,-102.9873 -123.999,-66.9873 -25,11 -47.0059,15.997 -51.0059,11.997 -11,-13 -26.7376,-184.2887 -21.2741,-236.0009 16.3894,-155.1273 89.7765,-267.4321 173.2809,-322.9981 22.5509,-13.1366 38.2879,-28.0463 62.9462,-23.9798 249.0453,44.5115 203.7675,353.8807 111.048,513.9698 -38,59 -123.0069,156.0059 -137.0069,156.0059 z"
       id="path119"
       sodipodi:nodetypes="scccscccss"
       style="fill:#b3065d;fill-opacity:1" /><path
       d="m 2159.6772,4022.7246 c -31.0142,-46.4882 -6.5252,-158.1152 -100.743,-162.801 -40.4342,-7.1562 -115.3257,-36.0747 -44.5485,-69.4353 86.0438,-92.7491 182.5132,-195.9731 312.6188,-219.0812 55.0968,-0.5941 129.3672,-0.748 152.1897,67.5072 14.0169,67.4852 -5.4985,127.8405 -42.0067,177.1063 -66.8909,92.1667 -159.8967,188.6595 -277.5103,206.704 z"
       id="path126"
       style="fill:#b3065d;fill-opacity:1" /><path
       d="m 2188.9262,4940.1612 c -39.9773,-55.167 -53.6586,-192.94 -147.2254,-100.1409 -113.9022,78.3703 -71.1879,-117.3649 -78.7545,-177.8689 -2.5371,-112.241 16.7094,-243.1521 121.8731,-306.2102 58.8788,-46.2655 145.5044,-60.8634 205.7816,-10.0378 52.7917,47.3103 117.2507,94.7659 126.4039,171.7838 26.6005,136.7939 -46.585,267.4002 -145.4403,356.6839 -26.2,22.77 -48.4333,55.1963 -82.6384,65.7901 z"
       id="path10"
       style="fill:#b3065d;fill-opacity:1" /><path
       d="m 2370.2662,3530.6033 c -1.9931,-3.321 -4.6944,-16.4166 -6.3281,-26.3379 -4.3995,-23.699 -24.5439,-104.7006 -25.3271,-107.2852 l -15.9961,-58.9892 h -64.9951 c -35,1 -69.004,-4.0088 -74.004,-9.0088 -6,-6 0,-22.9961 15,-45.9961 14,-20 33.9961,-67.0039 45.9961,-104.0039 11,-38 34.0098,-86.9991 50.0098,-108.9991 59,-82 214,-126.9931 300,-87.9931 l 36.9434,16.0986 c 1.0221,0.9805 2.0237,1.9905 2.9736,3.0469 2.1327,2.4177 4.3236,4.7853 6.4014,7.251 1.4906,1.7078 2.7672,3.5856 4.1748,5.3613 0.265,0.3653 0.5936,0.686 0.8056,1.084 0.6468,1.2133 1.0507,2.5651 1.8457,3.706 1.0119,1.6709 1.8295,3.4346 2.5635,5.2442 0.7584,1.9141 1.3923,3.8749 2.1973,5.7715 0.711,2.049 1.3603,4.1293 1.8603,6.2402 0.7775,2.8345 1.7533,5.6163 3.1055,8.2324 1.1754,2.3078 2.2774,4.633 3.1494,7.0752 0.849,2.0219 1.7301,4.0275 2.5781,6.0498 0.5186,1.2963 1.109,2.6029 1.333,3.9844 0.4061,1.8695 1.0276,3.6694 1.9336,5.3613 0.6591,1.2467 1.4034,2.4643 1.8164,3.8233 0.2389,0.8989 0.5093,1.7803 0.7911,2.666 0.4391,5.5795 1.6405,12.5021 3.5302,21.0058 18,83 8.9922,146.9932 -28.0078,207.9932 -37,62 -68.9931,91.0049 -162.9931,145.0049 -37.6954,14.388 -58.2142,48.3023 -86.792,73.623 -3.6416,3.4426 -7.3054,6.8631 -10.7227,10.5323 -4.8584,6.9572 -10.4808,5.3765 -13.8428,-0.542 z"
       id="path123"
       sodipodi:nodetypes="cccccsccccccccsccccccccccccccccc"
       style="fill:#b3065d;fill-opacity:1" /></g><g
     id="g141"
     inkscape:label="flower_right_3"
     transform="matrix(0.1,0,0,-0.1,-164.70232,678.9)"
     style="fill:#000000;stroke:none"><path
       d="m 6208,5976 c -187,-97 -310,-190 -440,-334 -128,-141 -156,-300 -82,-457 36,-75 156,-209 215,-239 47,-23 52,-24 107,-11 134,32 215,70 263,122 137,149 184,524 112,900 -10,51 -22,92 -28,92 -5,-1 -72,-34 -147,-73 z"
       id="path4"
       style="fill:#e04f07;fill-opacity:1" /><path
       d="m 5567,5103 c -12,-11 -7,-116 7,-173 8,-30 30,-93 50,-140 42,-99 45,-149 16,-241 -24,-78 -64,-149 -120,-211 -23,-27 -37,-48 -32,-48 13,0 197,126 254,173 53,45 155,182 174,235 19,55 17,122 -6,159 -10,18 -50,52 -87,77 -37,24 -90,68 -118,97 -57,60 -119,92 -138,72 z"
       id="path8"
       style="fill:#036045;fill-opacity:1" /></g><g
     id="g142"
     inkscape:label="flower_right_2"
     transform="matrix(0.1,0,0,-0.1,-164.70232,678.9)"
     style="fill:#000000;stroke:none"><path
       d="m 4440,6722 c 0,-37 -7,-114 -15,-172 -18,-133 -18,-217 -1,-302 22,-100 66,-161 136,-191 40,-16 47,-35 90,-227 11,-50 53,-191 94,-313 90,-274 170,-525 231,-722 92,-297 272,-806 293,-827 5,-5 22,13 39,39 l 31,47 -19,60 c -36,120 -180,529 -276,781 -25,66 -68,183 -95,260 -27,77 -66,187 -87,245 -20,58 -42,114 -47,125 -6,11 -19,49 -28,85 -10,36 -42,146 -72,244 -30,99 -54,187 -54,196 0,10 13,34 30,55 37,47 44,84 37,200 -4,78 -11,105 -41,170 -39,84 -72,129 -178,242 l -68,72 z"
       id="path1"
       style="fill:#686e04;fill-opacity:1" /><path
       d="m 5103,6128 c -28,-29 -89,-89 -135,-133 -71,-67 -89,-91 -113,-150 -26,-62 -29,-82 -30,-177 0,-58 4,-110 8,-114 15,-16 78,-5 121,20 54,31 117,102 145,161 11,24 27,82 35,127 14,80 32,318 25,318 -2,0 -27,-24 -56,-52 z"
       id="path3"
       style="fill:#686e04;fill-opacity:1" /><path
       d="m 4180,5865 c 0,-39 34,-127 70,-184 76,-117 154,-171 249,-171 45,0 57,4 82,29 35,36 36,61 5,126 -59,122 -174,195 -334,211 -64,6 -72,5 -72,-11 z"
       id="path5"
       style="fill:#686e04;fill-opacity:1" /><path
       d="m 5459,5602 c -2,-4 -56,-45 -120,-90 -215,-151 -280,-246 -283,-412 l -1,-85 30,3 c 43,5 130,46 186,89 51,38 94,108 123,198 23,73 77,297 72,302 -2,2 -6,0 -7,-5 z"
       id="path6"
       style="fill:#686e04;fill-opacity:1" /><path
       d="m 4253,5231 c -45,-4 -85,-9 -88,-12 -13,-13 11,-41 83,-97 43,-33 102,-83 132,-111 78,-73 137,-102 225,-108 73,-6 208,18 221,38 9,16 -49,111 -101,164 -61,62 -156,111 -245,125 -69,10 -97,11 -227,1 z"
       id="path7"
       style="fill:#686e04;fill-opacity:1" /><path
       d="m 4440,6722 c 0,-37 -7,-114 -15,-172 -18,-133 -18,-217 -1,-302 22,-100 66,-161 136,-191 40,-16 47,-35 90,-227 11,-50 53,-191 94,-313 90,-274 170,-525 231,-722 92,-297 272,-806 293,-827 5,-5 22,13 39,39 l 31,47 -19,60 c -36,120 -180,529 -276,781 -25,66 -68,183 -95,260 -27,77 -66,187 -87,245 -20,58 -42,114 -47,125 -6,11 -19,49 -28,85 -10,36 -42,146 -72,244 -30,99 -54,187 -54,196 0,10 13,34 30,55 37,47 44,84 37,200 -4,78 -11,105 -41,170 -39,84 -72,129 -178,242 l -68,72 z"
       id="path105"
       style="fill:#686e04;fill-opacity:1" /><path
       d="m 5103,6128 c -28,-29 -89,-89 -135,-133 -71,-67 -89,-91 -113,-150 -26,-62 -29,-82 -30,-177 0,-58 4,-110 8,-114 15,-16 78,-5 121,20 54,31 117,102 145,161 11,24 27,82 35,127 14,80 32,318 25,318 -2,0 -27,-24 -56,-52 z"
       id="path106"
       style="fill:#686e04;fill-opacity:1" /><path
       d="m 4180,5865 c 0,-39 34,-127 70,-184 76,-117 154,-171 249,-171 45,0 57,4 82,29 35,36 36,61 5,126 -59,122 -174,195 -334,211 -64,6 -72,5 -72,-11 z"
       id="path107"
       style="fill:#686e04;fill-opacity:1" /><path
       d="m 5459,5602 c -2,-4 -56,-45 -120,-90 -215,-151 -280,-246 -283,-412 l -1,-85 30,3 c 43,5 130,46 186,89 51,38 94,108 123,198 23,73 77,297 72,302 -2,2 -6,0 -7,-5 z"
       id="path108"
       style="fill:#686e04;fill-opacity:1" /><path
       d="m 4253,5231 c -45,-4 -85,-9 -88,-12 -13,-13 11,-41 83,-97 43,-33 102,-83 132,-111 78,-73 137,-102 225,-108 73,-6 208,18 221,38 9,16 -49,111 -101,164 -61,62 -156,111 -245,125 -69,10 -97,11 -227,1 z"
       id="path109"
       style="fill:#686e04;fill-opacity:1" /><path
       style="fill:#686e04"
       d="m 6831.2256,3977.9883 c -14.6275,-23.3478 -42.9336,-73.6597 -45.8496,-81.3574 -30.6923,-54.3295 -67.1906,-118.6737 -81.3721,-142.6319 -144,-244 -194.0059,-312.0039 -321.0059,-434.0039 -140,-136 -452.996,-376.9892 -465.996,-358.9892 -7,10 -142.0079,331.9912 -178.0079,425.9912 -21,56 -38.9941,113.998 -38.9941,127.998 0,28 32.9951,117.0049 79.9951,220.0049 61,131 48.0108,138.002 -43.9892,22.002 -48,-59 -59.0088,-79.002 -144.0088,-247.002 -91,-181 -142.002,-355.0059 -142.002,-486.0059 0,-61 7.0049,-83.9941 25.0049,-83.9941 8,0 20.9951,36.0029 34.9951,93.0029 36,146 70.002,248.9951 82.002,244.9951 6,-2 21.0029,-29.0039 33.0029,-59.0039 12,-30 28.9941,-71.999 38.9941,-93.999 62,-139 76.0108,-175.9922 76.0108,-196.9922 0,-17 -21.0117,-41.997 -72.0117,-86.997 -40,-35 -101.9883,-96.0039 -137.9883,-134.0039 -77,-84 -77.999,-83.9961 131.001,-0.9961 374,147 499.9873,219.9882 681.9873,392.9882 170,162 332.0078,394.0118 448.0078,642.0118 3.7538,7.9248 7.5003,15.5336 11.1181,22.6318 -0.1094,0.2423 -0.2126,0.4902 -0.3222,0.7324 -0.4389,0.9308 112.1623,177.3406 111.7237,178.2715 -68.5635,16.1978 -80.3896,33.8103 -82.2511,35.2881 l -0.015,0.015 v 0.015 l -0.015,0.015 z"
       id="path133"
       sodipodi:nodetypes="ccccccscccsscsscsccccccccccccc" /></g><path
     d="m 552.43766,171.87984 c -8.57049,0.35851 -18.65021,7.77583 -22.94677,17.51514 -2.81122,6.37237 -4.93659,18.10091 -6.26367,34.56738 l -0.95655,11.87988 -6.8291,-9.88476 c -14.1539,-20.489 -28.67074,-30.45531 -44.76123,-30.7295 -14.58507,-0.24854 -20.84912,5.5662 -20.84912,19.34912 0,5.61724 0.81714,8.25512 4.09424,13.20264 7.731,11.67168 24.81591,25.02388 35.47119,27.72217 3.11936,0.78993 5.94412,1.87771 6.27832,2.41846 0.33419,0.54074 -3.41283,1.97502 -8.32617,3.1875 -11.51745,2.84222 -23.69603,8.57198 -30.01612,14.12109 -17.53909,15.39953 -12.4723,42.50002 7.94971,42.51855 12.08595,0.011 13.64014,-0.89204 29.74072,-17.2749 12.24861,-12.46337 18.48219,-17.77887 23.38916,-19.28174 a 15.821022,15.821022 0 0 1 -5.81396,-12.25341 15.821022,15.821022 0 0 1 15.82178,-15.82178 15.821022,15.821022 0 0 1 15.82031,15.82178 15.821022,15.821022 0 0 1 -15.82031,15.82031 15.821022,15.821022 0 0 1 -1.86329,-0.10987 c 0.18193,0.99129 0.34074,2.25191 0.52149,3.8628 1.66186,14.81118 5.61223,24.76784 14.60449,36.81299 5.28751,7.08262 14.64056,14.44033 20.91651,16.45312 8.43121,2.70402 17.42486,-0.59842 23.38916,-8.58691 4.06838,-5.44919 3.72697,-17.82081 -0.75586,-27.39991 -3.3645,-7.18946 -12.69138,-17.76437 -21.78662,-24.70166 -6.35374,-4.8462 -5.79154,-6.10374 1.69042,-3.78662 9.12757,2.82673 30.04547,3.89552 39.12745,1.99952 13.68022,-2.85599 21.09526,-10.14296 22.01806,-21.63868 0.7638,-9.51429 -2.88129,-14.9516 -13.62744,-20.3247 -7.20007,-3.6 -9.20303,-3.98449 -20.60303,-3.96094 -9.37433,0.0194 -15.1449,0.80933 -22.40332,3.07031 -5.37735,1.67503 -10.0931,2.73013 -10.47949,2.34375 -0.38637,-0.38639 1.74239,-4.75956 4.73145,-9.71777 8.06437,-13.37698 9.7267,-18.24978 9.83642,-28.84131 0.16343,-15.77671 -5.96759,-25.47506 -17.73926,-28.06055 -1.14153,-0.25072 -2.33521,-0.34272 -3.55957,-0.2915 z"
     style="fill:#e04f07;stroke:none;stroke-width:1.32916"
     id="path128"
     inkscape:label="flower_right" /></svg>
